<?xml version="1.0" encoding="utf-8"?>
<svg x="-6849.03pt" y="65.1031pt" width="40.7305pt" height="52.292pt" viewBox="-6849.03 65.1031 40.7305 52.292" xmlns="http://www.w3.org/2000/svg" xmlns:xlink="http://www.w3.org/1999/xlink">
  <g id="Group">
    <path id="Smart Rectangle Copy" style="fill:#ffffff;fill-opacity:1;fill-rule:nonzero;opacity:1;stroke:#000000;stroke-linecap:round;stroke-linejoin:round;stroke-miterlimit:10;stroke-opacity:1;stroke-width:2;" d="M-6811.61,107.238 C-6811.61,111.657,-6815.19,115.238,-6819.61,115.238 C-6819.61,115.238,-6840.03,115.238,-6840.03,115.238 C-6844.45,115.238,-6848.03,111.657,-6848.03,107.238 C-6848.03,107.238,-6848.03,74.1031,-6848.03,74.1031 C-6848.03,69.6848,-6844.45,66.1031,-6840.03,66.1031 C-6840.03,66.1031,-6819.61,66.1031,-6819.61,66.1031 C-6815.19,66.1031,-6811.61,69.6848,-6811.61,74.1031 C-6811.61,74.1031,-6811.61,107.238,-6811.61,107.238 z"/>
    <path id="Path Copy" style="fill:none;opacity:1;stroke:#000000;stroke-linecap:round;stroke-linejoin:round;stroke-miterlimit:10;stroke-opacity:1;stroke-width:1;" d="M-6839.09,76.5567 C-6837.53,76.5567,-6836.26,77.8258,-6836.26,79.3913 C-6836.26,80.9569,-6837.53,82.226,-6839.09,82.226 C-6840.66,82.226,-6841.93,80.9569,-6841.93,79.3913 C-6841.93,77.8258,-6840.66,76.5567,-6839.09,76.5567 z"/>
    <path id="Path Copy" style="fill:none;opacity:1;stroke:#000000;stroke-linecap:round;stroke-linejoin:round;stroke-miterlimit:10;stroke-opacity:1;stroke-width:1;" d="M-6832.13,78.0037 C-6832.13,78.0037,-6817.71,78.0037,-6817.71,78.0037"/>
    <path id="Path Copy" style="fill:none;opacity:1;stroke:#000000;stroke-linecap:round;stroke-linejoin:round;stroke-miterlimit:10;stroke-opacity:1;stroke-width:1;" d="M-6832.13,81.3801 C-6832.13,81.3801,-6817.71,81.3801,-6817.71,81.3801"/>
    <path id="Path Copy 1" style="fill:none;opacity:1;stroke:#000000;stroke-linecap:round;stroke-linejoin:round;stroke-miterlimit:10;stroke-opacity:1;stroke-width:1;" d="M-6839.14,87.836 C-6837.58,87.836,-6836.31,89.1051,-6836.31,90.6707 C-6836.31,92.2362,-6837.58,93.5053,-6839.14,93.5053 C-6840.71,93.5053,-6841.98,92.2362,-6841.98,90.6707 C-6841.98,89.1051,-6840.71,87.836,-6839.14,87.836 z"/>
    <path id="Path Copy 1" style="fill:none;opacity:1;stroke:#000000;stroke-linecap:round;stroke-linejoin:round;stroke-miterlimit:10;stroke-opacity:1;stroke-width:1;" d="M-6832.19,89.2831 C-6832.19,89.2831,-6817.76,89.2831,-6817.76,89.2831"/>
    <path id="Path Copy 1" style="fill:none;opacity:1;stroke:#000000;stroke-linecap:round;stroke-linejoin:round;stroke-miterlimit:10;stroke-opacity:1;stroke-width:1;" d="M-6832.19,92.6595 C-6832.19,92.6595,-6817.76,92.6595,-6817.76,92.6595"/>
    <path id="Path Copy 2" style="fill:none;opacity:1;stroke:#000000;stroke-linecap:round;stroke-linejoin:round;stroke-miterlimit:10;stroke-opacity:1;stroke-width:1;" d="M-6839.14,99.3159 C-6837.58,99.3159,-6836.31,100.585,-6836.31,102.151 C-6836.31,103.716,-6837.58,104.985,-6839.14,104.985 C-6840.71,104.985,-6841.98,103.716,-6841.98,102.151 C-6841.98,100.585,-6840.71,99.3159,-6839.14,99.3159 z"/>
    <path id="Path Copy 2" style="fill:none;opacity:1;stroke:#000000;stroke-linecap:round;stroke-linejoin:round;stroke-miterlimit:10;stroke-opacity:1;stroke-width:1;" d="M-6832.19,100.763 C-6832.19,100.763,-6817.76,100.763,-6817.76,100.763"/>
    <path id="Path Copy 2" style="fill:none;opacity:1;stroke:#000000;stroke-linecap:round;stroke-linejoin:round;stroke-miterlimit:10;stroke-opacity:1;stroke-width:1;" d="M-6832.19,104.139 C-6832.19,104.139,-6817.76,104.139,-6817.76,104.139"/>
    <path id="Path Copy 3" style="fill:#ffffff;fill-opacity:1;fill-rule:evenodd;opacity:1;stroke:#000000;stroke-linecap:round;stroke-linejoin:round;stroke-miterlimit:10;stroke-opacity:1;stroke-width:1;" d="M-6815.89,102.722 C-6811.97,102.722,-6808.8,105.895,-6808.8,109.808 C-6808.8,113.722,-6811.97,116.895,-6815.89,116.895 C-6819.8,116.895,-6822.97,113.722,-6822.97,109.808 C-6822.97,105.895,-6819.8,102.722,-6815.89,102.722 z"/>
  </g>
</svg>
