<?xml version="1.0" encoding="utf-8"?>
<svg x="-6901.52pt" y="66.2635pt" width="40.7305pt" height="52.292pt" viewBox="-6901.52 66.2635 40.7305 52.292" xmlns="http://www.w3.org/2000/svg" xmlns:xlink="http://www.w3.org/1999/xlink">
  <g id="Group">
    <path id="Smart Rectangle Copy" style="fill:#ffffff;fill-opacity:1;fill-rule:nonzero;opacity:1;stroke:#000000;stroke-linecap:round;stroke-linejoin:round;stroke-miterlimit:10;stroke-opacity:1;stroke-width:2;" d="M-6864.1,108.399 C-6864.1,112.817,-6867.68,116.399,-6872.1,116.399 C-6872.1,116.399,-6892.52,116.399,-6892.52,116.399 C-6896.94,116.399,-6900.52,112.817,-6900.52,108.399 C-6900.52,108.399,-6900.52,75.2635,-6900.52,75.2635 C-6900.52,70.8452,-6896.94,67.2635,-6892.52,67.2635 C-6892.52,67.2635,-6872.1,67.2635,-6872.1,67.2635 C-6867.68,67.2635,-6864.1,70.8452,-6864.1,75.2635 C-6864.1,75.2635,-6864.1,108.399,-6864.1,108.399 z"/>
    <path id="Path Copy" style="fill:none;opacity:1;stroke:#000000;stroke-linecap:round;stroke-linejoin:round;stroke-miterlimit:10;stroke-opacity:1;stroke-width:1;" d="M-6891.58,77.7171 C-6890.01,77.7171,-6888.75,78.9862,-6888.75,80.5517 C-6888.75,82.1173,-6890.01,83.3864,-6891.58,83.3864 C-6893.15,83.3864,-6894.42,82.1173,-6894.42,80.5517 C-6894.42,78.9862,-6893.15,77.7171,-6891.58,77.7171 z"/>
    <path id="Path Copy" style="fill:none;opacity:1;stroke:#000000;stroke-linecap:round;stroke-linejoin:round;stroke-miterlimit:10;stroke-opacity:1;stroke-width:1;" d="M-6884.62,79.1641 C-6884.62,79.1641,-6870.2,79.1641,-6870.2,79.1641"/>
    <path id="Path Copy" style="fill:none;opacity:1;stroke:#000000;stroke-linecap:round;stroke-linejoin:round;stroke-miterlimit:10;stroke-opacity:1;stroke-width:1;" d="M-6884.62,82.5406 C-6884.62,82.5406,-6870.2,82.5406,-6870.2,82.5406"/>
    <path id="Path Copy 1" style="fill:none;opacity:1;stroke:#000000;stroke-linecap:round;stroke-linejoin:round;stroke-miterlimit:10;stroke-opacity:1;stroke-width:1;" d="M-6891.63,88.9964 C-6890.07,88.9964,-6888.8,90.2655,-6888.8,91.8311 C-6888.8,93.3966,-6890.07,94.6657,-6891.63,94.6657 C-6893.2,94.6657,-6894.47,93.3966,-6894.47,91.8311 C-6894.47,90.2655,-6893.2,88.9964,-6891.63,88.9964 z"/>
    <path id="Path Copy 1" style="fill:none;opacity:1;stroke:#000000;stroke-linecap:round;stroke-linejoin:round;stroke-miterlimit:10;stroke-opacity:1;stroke-width:1;" d="M-6884.67,90.4435 C-6884.67,90.4435,-6870.25,90.4435,-6870.25,90.4435"/>
    <path id="Path Copy 1" style="fill:none;opacity:1;stroke:#000000;stroke-linecap:round;stroke-linejoin:round;stroke-miterlimit:10;stroke-opacity:1;stroke-width:1;" d="M-6884.67,93.8199 C-6884.67,93.8199,-6870.25,93.8199,-6870.25,93.8199"/>
    <path id="Path Copy 2" style="fill:none;opacity:1;stroke:#000000;stroke-linecap:round;stroke-linejoin:round;stroke-miterlimit:10;stroke-opacity:1;stroke-width:1;" d="M-6891.63,100.476 C-6890.07,100.476,-6888.8,101.745,-6888.8,103.311 C-6888.8,104.876,-6890.07,106.146,-6891.63,106.146 C-6893.2,106.146,-6894.47,104.876,-6894.47,103.311 C-6894.47,101.745,-6893.2,100.476,-6891.63,100.476 z"/>
    <path id="Path Copy 2" style="fill:none;opacity:1;stroke:#000000;stroke-linecap:round;stroke-linejoin:round;stroke-miterlimit:10;stroke-opacity:1;stroke-width:1;" d="M-6884.67,101.923 C-6884.67,101.923,-6870.25,101.923,-6870.25,101.923"/>
    <path id="Path Copy 2" style="fill:none;opacity:1;stroke:#000000;stroke-linecap:round;stroke-linejoin:round;stroke-miterlimit:10;stroke-opacity:1;stroke-width:1;" d="M-6884.67,105.3 C-6884.67,105.3,-6870.25,105.3,-6870.25,105.3"/>
    <path id="Path Copy 3" style="fill:#ffffff;fill-opacity:1;fill-rule:evenodd;opacity:1;stroke:#000000;stroke-linecap:round;stroke-linejoin:round;stroke-miterlimit:10;stroke-opacity:1;stroke-width:1;" d="M-6868.37,103.882 C-6864.46,103.882,-6861.29,107.055,-6861.29,110.969 C-6861.29,114.883,-6864.46,118.055,-6868.37,118.055 C-6872.29,118.055,-6875.46,114.883,-6875.46,110.969 C-6875.46,107.055,-6872.29,103.882,-6868.37,103.882 z"/>
    <path id="Path Copy" style="fill:#ffffff;fill-opacity:1;fill-rule:evenodd;opacity:1;stroke:#000000;stroke-linecap:round;stroke-linejoin:round;stroke-miterlimit:10;stroke-opacity:1;stroke-width:2;" d="M-6868.26,106.272 C-6868.26,106.272,-6868.37,115.666,-6868.37,115.666"/>
    <path id="Path Copy" style="fill:#ffffff;fill-opacity:1;fill-rule:evenodd;opacity:1;stroke:#000000;stroke-linecap:round;stroke-linejoin:round;stroke-miterlimit:10;stroke-opacity:1;stroke-width:2;" d="M-6873.14,110.969 C-6873.14,110.969,-6863.6,110.969,-6863.6,110.969"/>
  </g>
</svg>
