<?xml version="1.0" encoding="utf-8"?>
<svg x="-6796.07pt" y="64.2747pt" width="40.7305pt" height="52.292pt" viewBox="-6796.07 64.2747 40.7305 52.292" xmlns="http://www.w3.org/2000/svg" xmlns:xlink="http://www.w3.org/1999/xlink">
  <g id="Group">
    <path id="Smart Rectangle" style="fill:#ffffff;fill-opacity:1;fill-rule:nonzero;opacity:1;stroke:#000000;stroke-linecap:round;stroke-linejoin:round;stroke-miterlimit:10;stroke-opacity:1;stroke-width:2;" d="M-6758.65,106.41 C-6758.65,110.828,-6762.23,114.41,-6766.65,114.41 C-6766.65,114.41,-6787.07,114.41,-6787.07,114.41 C-6791.49,114.41,-6795.07,110.828,-6795.07,106.41 C-6795.07,106.41,-6795.07,73.2747,-6795.07,73.2747 C-6795.07,68.8564,-6791.49,65.2747,-6787.07,65.2747 C-6787.07,65.2747,-6766.65,65.2747,-6766.65,65.2747 C-6762.23,65.2747,-6758.65,68.8564,-6758.65,73.2747 C-6758.65,73.2747,-6758.65,106.41,-6758.65,106.41 z"/>
    <path id="Path" style="fill:none;opacity:1;stroke:#000000;stroke-linecap:round;stroke-linejoin:round;stroke-miterlimit:10;stroke-opacity:1;stroke-width:1;" d="M-6786.13,75.7283 C-6784.57,75.7283,-6783.3,76.9974,-6783.3,78.5629 C-6783.3,80.1285,-6784.57,81.3976,-6786.13,81.3976 C-6787.7,81.3976,-6788.97,80.1285,-6788.97,78.5629 C-6788.97,76.9974,-6787.7,75.7283,-6786.13,75.7283 z"/>
    <path id="Path" style="fill:none;opacity:1;stroke:#000000;stroke-linecap:round;stroke-linejoin:round;stroke-miterlimit:10;stroke-opacity:1;stroke-width:1;" d="M-6779.17,77.1753 C-6779.17,77.1753,-6764.75,77.1753,-6764.75,77.1753"/>
    <path id="Path" style="fill:none;opacity:1;stroke:#000000;stroke-linecap:round;stroke-linejoin:round;stroke-miterlimit:10;stroke-opacity:1;stroke-width:1;" d="M-6779.17,80.5517 C-6779.17,80.5517,-6764.75,80.5517,-6764.75,80.5517"/>
    <path id="Path Copy" style="fill:none;opacity:1;stroke:#000000;stroke-linecap:round;stroke-linejoin:round;stroke-miterlimit:10;stroke-opacity:1;stroke-width:1;" d="M-6786.18,87.0076 C-6784.62,87.0076,-6783.35,88.2767,-6783.35,89.8423 C-6783.35,91.4078,-6784.62,92.6769,-6786.18,92.6769 C-6787.75,92.6769,-6789.02,91.4078,-6789.02,89.8423 C-6789.02,88.2767,-6787.75,87.0076,-6786.18,87.0076 z"/>
    <path id="Path Copy" style="fill:none;opacity:1;stroke:#000000;stroke-linecap:round;stroke-linejoin:round;stroke-miterlimit:10;stroke-opacity:1;stroke-width:1;" d="M-6779.22,88.4547 C-6779.22,88.4547,-6764.8,88.4547,-6764.8,88.4547"/>
    <path id="Path Copy" style="fill:none;opacity:1;stroke:#000000;stroke-linecap:round;stroke-linejoin:round;stroke-miterlimit:10;stroke-opacity:1;stroke-width:1;" d="M-6779.22,91.8311 C-6779.22,91.8311,-6764.8,91.8311,-6764.8,91.8311"/>
    <path id="Path Copy 1" style="fill:none;opacity:1;stroke:#000000;stroke-linecap:round;stroke-linejoin:round;stroke-miterlimit:10;stroke-opacity:1;stroke-width:1;" d="M-6786.18,98.4875 C-6784.62,98.4875,-6783.35,99.7566,-6783.35,101.322 C-6783.35,102.888,-6784.62,104.157,-6786.18,104.157 C-6787.75,104.157,-6789.02,102.888,-6789.02,101.322 C-6789.02,99.7566,-6787.75,98.4875,-6786.18,98.4875 z"/>
    <path id="Path Copy 1" style="fill:none;opacity:1;stroke:#000000;stroke-linecap:round;stroke-linejoin:round;stroke-miterlimit:10;stroke-opacity:1;stroke-width:1;" d="M-6779.22,99.9345 C-6779.22,99.9345,-6764.8,99.9345,-6764.8,99.9345"/>
    <path id="Path Copy 1" style="fill:none;opacity:1;stroke:#000000;stroke-linecap:round;stroke-linejoin:round;stroke-miterlimit:10;stroke-opacity:1;stroke-width:1;" d="M-6779.22,103.311 C-6779.22,103.311,-6764.8,103.311,-6764.8,103.311"/>
    <path id="Path Copy 2" style="fill:#ffffff;fill-opacity:1;fill-rule:evenodd;opacity:1;stroke:#000000;stroke-linecap:round;stroke-linejoin:round;stroke-miterlimit:10;stroke-opacity:1;stroke-width:1;" d="M-6762.93,101.893 C-6759.01,101.893,-6755.84,105.066,-6755.84,108.98 C-6755.84,112.894,-6759.01,116.067,-6762.93,116.067 C-6766.84,116.067,-6770.01,112.894,-6770.01,108.98 C-6770.01,105.066,-6766.84,101.893,-6762.93,101.893 z"/>
    <path id="Path" style="fill:none;opacity:1;stroke:#000000;stroke-linecap:round;stroke-linejoin:round;stroke-miterlimit:10;stroke-opacity:1;stroke-width:2;" d="M-6767.93,109.432 C-6766.96,110.816,-6765.92,112.153,-6764.72,113.384 C-6764.39,113.72,-6763.89,114.503,-6763.3,114.401 C-6762.98,114.346,-6762.89,113.979,-6762.78,113.747 C-6762.45,113.048,-6762.13,112.346,-6761.8,111.646 C-6760.52,108.921,-6759.08,106.274,-6757.09,103.919"/>
  </g>
</svg>
