<?xml version="1.0" encoding="utf-8"?>
<svg x="-6500.49pt" y="-282.504pt" width="109.492pt" height="114.666pt" viewBox="-6500.49 -282.504 109.492 114.666" xmlns="http://www.w3.org/2000/svg" xmlns:xlink="http://www.w3.org/1999/xlink">
  <path id="Path 318 Copy" style="fill:#807e82;fill-opacity:1;fill-rule:evenodd;opacity:1;stroke:none;" d="M-6416.62,-220.843 C-6416.62,-220.843,-6482.65,-258.377,-6482.65,-258.377 C-6486.91,-260.8,-6492.75,-258.568,-6495.7,-253.39 C-6498.64,-248.212,-6497.57,-242.051,-6493.31,-239.627 C-6493.31,-239.627,-6493.31,-239.627,-6493.31,-239.627 C-6493.31,-239.627,-6427.12,-202.002,-6427.12,-202.002 C-6426.54,-196.393,-6423.42,-191.188,-6418.23,-188.241 C-6412.83,-185.172,-6406.47,-185.277,-6401.23,-187.956 C-6401.23,-187.956,-6410.55,-193.253,-6410.55,-193.253 C-6410.55,-193.253,-6410.53,-193.289,-6410.53,-193.289 C-6410.53,-193.289,-6413.92,-195.237,-6413.92,-195.237 C-6413.92,-195.237,-6413.93,-206.949,-6413.93,-206.949 C-6413.93,-206.949,-6403.8,-212.819,-6403.8,-212.819 C-6403.8,-212.819,-6400.51,-210.924,-6400.51,-210.924 C-6400.51,-210.924,-6400.5,-210.942,-6400.5,-210.942 C-6400.5,-210.942,-6391,-205.542,-6391,-205.542 C-6391.26,-211.559,-6394.44,-217.25,-6399.96,-220.386 C-6405.24,-223.389,-6411.44,-223.353,-6416.62,-220.843 z M-6481.62,-245.54 C-6482.94,-243.226,-6485.88,-242.417,-6488.19,-243.732 C-6490.51,-245.047,-6491.32,-247.989,-6490,-250.302 C-6488.69,-252.616,-6485.74,-253.426,-6483.43,-252.111 C-6481.12,-250.795,-6480.31,-247.853,-6481.62,-245.54 z"/>
  <path id="Path 318 Copy 1" style="fill:#505050;fill-opacity:1;fill-rule:evenodd;opacity:1;stroke:none;" d="M-6464.35,-202.254 C-6464.35,-202.254,-6398.45,-240.023,-6398.45,-240.023 C-6394.2,-242.461,-6393.15,-248.626,-6396.11,-253.794 C-6399.07,-258.961,-6404.92,-261.173,-6409.18,-258.735 C-6409.18,-258.735,-6409.18,-258.735,-6409.18,-258.735 C-6409.18,-258.735,-6475.23,-220.875,-6475.23,-220.875 C-6480.36,-223.231,-6486.42,-223.189,-6491.6,-220.224 C-6496.99,-217.135,-6500.13,-211.606,-6500.49,-205.73 C-6500.49,-205.73,-6491.19,-211.061,-6491.19,-211.061 C-6491.19,-211.061,-6491.17,-211.025,-6491.17,-211.025 C-6491.17,-211.025,-6487.77,-212.949,-6487.77,-212.949 C-6487.77,-212.949,-6477.68,-207.008,-6477.68,-207.008 C-6477.68,-207.008,-6477.78,-195.297,-6477.78,-195.297 C-6477.78,-195.297,-6481.08,-193.425,-6481.08,-193.425 C-6481.08,-193.425,-6481.07,-193.407,-6481.07,-193.407 C-6481.07,-193.407,-6490.55,-187.974,-6490.55,-187.974 C-6485.24,-185.143,-6478.72,-184.988,-6473.21,-188.143 C-6467.94,-191.165,-6464.82,-196.522,-6464.35,-202.254 z M-6410.03,-245.668 C-6411.35,-247.977,-6410.55,-250.921,-6408.24,-252.245 C-6405.93,-253.568,-6402.99,-252.769,-6401.67,-250.461 C-6400.34,-248.151,-6401.14,-245.206,-6403.45,-243.883 C-6405.76,-242.56,-6408.7,-243.359,-6410.03,-245.668 z"/>
  <path id="Path 318" style="fill:#313737;fill-opacity:1;fill-rule:evenodd;opacity:1;stroke:none;" d="M-6456.44,-252.67 C-6456.44,-252.67,-6456.44,-176.717,-6456.44,-176.717 C-6456.44,-171.813,-6451.61,-167.838,-6445.66,-167.838 C-6439.7,-167.838,-6434.87,-171.813,-6434.87,-176.717 C-6434.87,-176.717,-6434.87,-176.717,-6434.87,-176.717 C-6434.87,-176.717,-6434.87,-252.853,-6434.87,-252.853 C-6430.28,-256.126,-6427.3,-261.412,-6427.3,-267.376 C-6427.3,-273.587,-6430.53,-279.063,-6435.45,-282.296 C-6435.45,-282.296,-6435.45,-271.578,-6435.45,-271.578 C-6435.45,-271.578,-6435.49,-271.578,-6435.49,-271.578 C-6435.49,-271.578,-6435.52,-267.672,-6435.52,-267.672 C-6435.52,-267.672,-6445.69,-261.869,-6445.69,-261.869 C-6445.69,-261.869,-6455.8,-267.778,-6455.8,-267.778 C-6455.8,-267.778,-6455.78,-271.578,-6455.78,-271.578 C-6455.78,-271.578,-6455.8,-271.578,-6455.8,-271.578 C-6455.8,-271.578,-6455.8,-282.504,-6455.8,-282.504 C-6460.9,-279.301,-6464.28,-273.722,-6464.28,-267.376 C-6464.28,-261.3,-6461.18,-255.927,-6456.44,-252.67 z M-6445.79,-183.952 C-6443.13,-183.952,-6440.97,-181.795,-6440.97,-179.133 C-6440.97,-176.472,-6443.13,-174.314,-6445.79,-174.314 C-6448.45,-174.314,-6450.61,-176.472,-6450.61,-179.133 C-6450.61,-181.795,-6448.45,-183.952,-6445.79,-183.952 z"/>
</svg>
